<svg width="341" height="208" viewBox="0 0 341 208" fill="none" xmlns="http://www.w3.org/2000/svg">
<rect x="11" y="11" width="267" height="186" rx="19" stroke="#ffffff" stroke-width="22"/>
<rect x="51" y="56" width="29" height="94" rx="14.5" fill="#ffffff"/>
<mask id="path-3-inside-1_0_1" fill="#ffffff">
<path d="M305 136.033C305 143.194 311.068 149.19 317.526 146.094C317.946 145.893 318.363 145.682 318.777 145.46C323.144 143.124 327.113 139.698 330.456 135.38C333.799 131.063 336.45 125.936 338.26 120.295C340.069 114.653 341 108.606 341 102.5C341 96.3935 340.069 90.3469 338.26 84.7052C336.45 79.0636 333.799 73.9375 330.456 69.6195C327.113 65.3016 323.144 61.8764 318.777 59.5396C318.363 59.3181 317.946 59.1068 317.526 58.9057C311.068 55.8098 305 61.8057 305 68.9673L305 75.5796C305 79.0894 307.998 81.8443 311.093 83.5V83.5C313.025 84.5335 314.78 86.0484 316.258 87.9581C317.737 89.8677 318.91 92.1348 319.71 94.63C320.51 97.1251 320.922 99.7993 320.922 102.5C320.922 105.201 320.51 107.875 319.71 110.37C318.91 112.865 317.737 115.132 316.258 117.042C314.78 118.952 313.025 120.466 311.093 121.5V121.5C307.998 123.156 305 125.911 305 129.42V136.033Z"/>
</mask>
<path d="M305 136.033C305 143.194 311.068 149.19 317.526 146.094C317.946 145.893 318.363 145.682 318.777 145.46C323.144 143.124 327.113 139.698 330.456 135.38C333.799 131.063 336.45 125.936 338.26 120.295C340.069 114.653 341 108.606 341 102.5C341 96.3935 340.069 90.3469 338.26 84.7052C336.45 79.0636 333.799 73.9375 330.456 69.6195C327.113 65.3016 323.144 61.8764 318.777 59.5396C318.363 59.3181 317.946 59.1068 317.526 58.9057C311.068 55.8098 305 61.8057 305 68.9673L305 75.5796C305 79.0894 307.998 81.8443 311.093 83.5V83.5C313.025 84.5335 314.78 86.0484 316.258 87.9581C317.737 89.8677 318.91 92.1348 319.71 94.63C320.51 97.1251 320.922 99.7993 320.922 102.5C320.922 105.201 320.51 107.875 319.71 110.37C318.91 112.865 317.737 115.132 316.258 117.042C314.78 118.952 313.025 120.466 311.093 121.5V121.5C307.998 123.156 305 125.911 305 129.42V136.033Z" stroke="#ffffff" stroke-width="44" mask="url(#path-3-inside-1_0_1)"/>
</svg>
