<svg width="341" height="235" viewBox="0 0 341 235" fill="none" xmlns="http://www.w3.org/2000/svg">
<mask id="path-1-inside-1_0_1" fill="white">
<path d="M305 150.033C305 157.194 311.068 163.19 317.526 160.094C317.946 159.893 318.363 159.682 318.777 159.46C323.144 157.124 327.113 153.698 330.456 149.38C333.799 145.063 336.45 139.936 338.26 134.295C340.069 128.653 341 122.606 341 116.5C341 110.394 340.069 104.347 338.26 98.7052C336.45 93.0636 333.799 87.9375 330.456 83.6195C327.113 79.3016 323.144 75.8764 318.777 73.5396C318.363 73.3181 317.946 73.1068 317.526 72.9057C311.068 69.8098 305 75.8057 305 82.9673L305 89.5796C305 93.0894 307.998 95.8443 311.093 97.5V97.5C313.025 98.5335 314.78 100.048 316.258 101.958C317.737 103.868 318.91 106.135 319.71 108.63C320.51 111.125 320.922 113.799 320.922 116.5C320.922 119.201 320.51 121.875 319.71 124.37C318.91 126.865 317.737 129.132 316.258 131.042C314.78 132.952 313.025 134.466 311.093 135.5V135.5C307.998 137.156 305 139.911 305 143.42V150.033Z"/>
</mask>
<path d="M305 150.033C305 157.194 311.068 163.19 317.526 160.094C317.946 159.893 318.363 159.682 318.777 159.46C323.144 157.124 327.113 153.698 330.456 149.38C333.799 145.063 336.45 139.936 338.26 134.295C340.069 128.653 341 122.606 341 116.5C341 110.394 340.069 104.347 338.26 98.7052C336.45 93.0636 333.799 87.9375 330.456 83.6195C327.113 79.3016 323.144 75.8764 318.777 73.5396C318.363 73.3181 317.946 73.1068 317.526 72.9057C311.068 69.8098 305 75.8057 305 82.9673L305 89.5796C305 93.0894 307.998 95.8443 311.093 97.5V97.5C313.025 98.5335 314.78 100.048 316.258 101.958C317.737 103.868 318.91 106.135 319.71 108.63C320.51 111.125 320.922 113.799 320.922 116.5C320.922 119.201 320.51 121.875 319.71 124.37C318.91 126.865 317.737 129.132 316.258 131.042C314.78 132.952 313.025 134.466 311.093 135.5V135.5C307.998 137.156 305 139.911 305 143.42V150.033Z" stroke="white" stroke-width="44" mask="url(#path-1-inside-1_0_1)"/>
<path fill-rule="evenodd" clip-rule="evenodd" d="M171.163 1.15651C175.598 3.40888 177.889 8.42819 176.682 13.2543L158.662 85.334H230.333C234.472 85.334 238.237 87.7281 239.993 91.4763C241.749 95.2245 241.177 99.6497 238.527 102.829L131.861 230.829C128.677 234.651 123.273 235.764 118.837 233.511C114.402 231.259 112.112 226.24 113.319 221.414L131.338 149.334H59.6668C55.5279 149.334 51.7627 146.939 50.0072 143.192C48.2516 139.444 48.8228 135.018 51.4724 131.839L158.139 3.83864C161.324 0.0169868 166.727 -1.09579 171.163 1.15651ZM82.4405 128.001H145C148.284 128.001 151.386 129.514 153.407 132.103C155.429 134.692 156.145 138.068 155.349 141.254L145.324 181.349L207.56 106.667H145C141.716 106.667 138.614 105.154 136.593 102.565C134.571 99.9761 133.855 96.6001 134.652 93.4136L144.676 53.3184L82.4405 128.001Z" fill="white"/>
<path fill-rule="evenodd" clip-rule="evenodd" d="M139.505 14H30C13.4315 14 0 27.4315 0 44V192C0 208.569 13.4315 222 30 222H102.422L107.922 200H30C25.5817 200 22 196.418 22 192V44C22 39.5817 25.5817 36 30 36H121.171L139.505 14ZM181.246 36L186.682 14.2543C186.703 14.1696 186.723 14.0848 186.742 14L259 14C275.569 14 289 27.4315 289 44V192C289 208.569 275.569 222 259 222H150.052L168.385 200H259C263.418 200 267 196.418 267 192V44C267 39.5817 263.418 36 259 36H181.246Z" fill="white"/>
</svg>
