<!DOCTYPE svg PUBLIC "-//W3C//DTD SVG 1.1//EN" "http://www.w3.org/Graphics/SVG/1.1/DTD/svg11.dtd">
<!-- Uploaded to: SVG Repo, www.svgrepo.com, Transformed by: SVG Repo Mixer Tools -->
<svg width="256px" height="256px" viewBox="0 0 24.00 24.00" fill="none" xmlns="http://www.w3.org/2000/svg" stroke="#ffffff" stroke-width="0.00024000000000000003">

<g id="SVGRepo_bgCarrier" stroke-width="0"/>

<g id="SVGRepo_tracerCarrier" stroke-linecap="round" stroke-linejoin="round"/>

<g id="SVGRepo_iconCarrier"> <path d="M7.75 4.75C8.30228 4.75 8.75 4.30228 8.75 3.75V2.75C8.75 2.19772 8.30228 1.75 7.75 1.75H4.25C2.86929 1.75 1.75 2.86929 1.75 4.25V20.25C1.75 21.6307 2.86929 22.75 4.25 22.75H7.75C8.30228 22.75 8.75 22.3023 8.75 21.75V20.75C8.75 20.1977 8.30228 19.75 7.75 19.75H4.75V4.75H7.75Z" fill="#ffffff"/> <path d="M16.25 8.25003C16.25 7.84557 16.4936 7.48093 16.8673 7.32615C17.241 7.17137 17.6711 7.25692 17.9571 7.54292L21.9571 11.5429C22.3476 11.9334 22.3476 12.5666 21.9571 12.9571L17.9571 16.9571C17.6711 17.2431 17.241 17.3287 16.8673 17.1739C16.4936 17.0191 16.25 16.6545 16.25 16.25V13.75H8.25C7.69771 13.75 7.25 13.3023 7.25 12.75V11.75C7.25 11.1977 7.69772 10.75 8.25 10.75H16.25V8.25003Z" fill="#ffffff"/> </g>

</svg>
