<!DOCTYPE svg PUBLIC "-//W3C//DTD SVG 1.1//EN" "http://www.w3.org/Graphics/SVG/1.1/DTD/svg11.dtd">
<!-- Uploaded to: SVG Repo, www.svgrepo.com, Transformed by: SVG Repo Mixer Tools -->
<svg width="256px" height="256px" viewBox="0 0 24 24" fill="none" xmlns="http://www.w3.org/2000/svg">
<g id="SVGRepo_bgCarrier" stroke-width="0"/>
<g id="SVGRepo_tracerCarrier" stroke-linecap="round" stroke-linejoin="round"/>
<g id="SVGRepo_iconCarrier"> <path fill-rule="evenodd" clip-rule="evenodd" d="M12 1C5.92487 1 1 5.92487 1 12C1 18.0751 5.92487 23 12 23C18.0751 23 23 18.0751 23 12C23 5.92487 18.0751 1 12 1ZM6.38231 4.9681C7.92199 3.73647 9.87499 3 12 3C16.9706 3 21 7.02944 21 12C21 14.125 20.2635 16.078 19.0319 17.6177L6.38231 4.9681ZM4.9681 6.38231C3.73647 7.92199 3 9.87499 3 12C3 16.9706 7.02944 21 12 21C14.125 21 16.078 20.2635 17.6177 19.0319L4.9681 6.38231Z" fill="#ffffff"/> </g>
</svg>